<svg id="Layer_1" data-name="Layer 1" xmlns="http://www.w3.org/2000/svg" xmlns:xlink="http://www.w3.org/1999/xlink" viewBox="0 0 24 24"><defs><clipPath id="clip-path"><rect width="24" height="24" style="fill:none"/></clipPath></defs><title>bend</title><g style="clip-path:url(#clip-path)"><path d="M16.44,19.11a.23.23,0,0,1-.15-.07l-.47-.58a.18.18,0,1,1,.28-.24l.48.58a.18.18,0,0,1,0,.26A.21.21,0,0,1,16.44,19.11Z" style="fill:#e51919"/><path d="M15,17.33a.21.21,0,0,1-.14-.07l-1-1.21a.19.19,0,0,1,0-.26.18.18,0,0,1,.26,0l1,1.21a.19.19,0,0,1,0,.26A.17.17,0,0,1,15,17.33Zm-2-2.42a.2.2,0,0,1-.14-.06l-1-1.21a.2.2,0,0,1,0-.27.19.19,0,0,1,.26,0l1,1.21a.19.19,0,0,1,0,.26A.16.16,0,0,1,12.94,14.91Z" style="fill:#e51919"/><path d="M10.93,12.5a.17.17,0,0,1-.14-.07l-.48-.57a.19.19,0,0,1,0-.27.2.2,0,0,1,.27,0l.48.57a.2.2,0,0,1,0,.27A.16.16,0,0,1,10.93,12.5Z" style="fill:#e51919"/><line x1="20.53" y1="11.48" x2="16.34" y2="19.02" style="fill:none;stroke:#e51919;stroke-linecap:round;stroke-linejoin:round;stroke-width:0.5px"/><line x1="5.51" y1="20.78" x2="16.34" y2="19.02" style="fill:none;stroke:#e51919;stroke-linecap:round;stroke-linejoin:round;stroke-width:0.5px"/><polyline points="23.49 3.58 21.43 9.93 20.63 11.38 22.57 5.14 23.49 3.58" style="fill:#a1a1a1"/><polyline points="23.49 3.58 21.43 9.93 20.63 11.38 22.57 5.14 23.49 3.58" style="fill:none;stroke:#a1a1a1;stroke-miterlimit:10;stroke-width:0.011288871956060887px"/><polyline points="5.57 19.71 5.6 20.69 3.84 15.6 3.83 14.46 5.57 19.71" style="fill:#747474"/><polyline points="5.57 19.71 5.6 20.69 3.84 15.6 3.83 14.46 5.57 19.71" style="fill:none;stroke:#747474;stroke-miterlimit:10;stroke-width:0.011288871956060887px"/><polyline points="22.57 5.14 20.63 11.38 19.78 11.06 21.52 4.78 22.57 5.14" style="fill:#cfcfcf"/><polyline points="22.57 5.14 20.63 11.38 19.78 11.06 21.52 4.78 22.57 5.14" style="fill:none;stroke:#cfcfcf;stroke-miterlimit:10;stroke-width:0.011288871956060887px"/><polyline points="3.83 14.46 3.84 15.6 0.57 16.09 0.64 14.68 3.83 14.46" style="fill:#fff"/><polyline points="3.83 14.46 3.84 15.6 0.57 16.09 0.64 14.68 3.83 14.46" style="fill:none;stroke:#fff;stroke-miterlimit:10;stroke-width:0.011288871956060887px"/><polyline points="23.49 3.58 22.57 5.14 21.52 4.78 22.24 3.17 23.49 3.58" style="fill:#fff"/><polyline points="23.49 3.58 22.57 5.14 21.52 4.78 22.24 3.17 23.49 3.58" style="fill:none;stroke:#fff;stroke-miterlimit:10;stroke-width:0.011288871956060887px"/><polyline points="0.57 16.09 3.84 15.6 5.6 20.69 3.05 21.1 0.57 16.09" style="fill:#dadada"/><polyline points="0.57 16.09 3.84 15.6 5.6 20.69 3.05 21.1 0.57 16.09" style="fill:none;stroke:#dadada;stroke-miterlimit:10;stroke-width:0.011288871956060887px"/><polyline points="22.24 3.17 21.52 4.78 20.46 4.5 20.98 2.85 22.24 3.17" style="fill:#fff"/><polyline points="22.24 3.17 21.52 4.78 20.46 4.5 20.98 2.85 22.24 3.17" style="fill:none;stroke:#fff;stroke-miterlimit:10;stroke-width:0.011288871956060887px"/><polyline points="3.83 14.46 0.64 14.68 0.87 13.32 3.95 13.37 3.83 14.46" style="fill:#fff"/><polyline points="3.83 14.46 0.64 14.68 0.87 13.32 3.95 13.37 3.83 14.46" style="fill:none;stroke:#fff;stroke-miterlimit:10;stroke-width:0.011288871956060887px"/><polyline points="3.95 13.37 0.87 13.32 1.23 12.04 4.19 12.31 3.95 13.37" style="fill:#fff"/><polyline points="3.95 13.37 0.87 13.32 1.23 12.04 4.19 12.31 3.95 13.37" style="fill:none;stroke:#fff;stroke-miterlimit:10;stroke-width:0.011288871956060887px"/><polyline points="20.98 2.85 20.46 4.5 19.39 4.28 19.71 2.6 20.98 2.85" style="fill:#fff"/><polyline points="20.98 2.85 20.46 4.5 19.39 4.28 19.71 2.6 20.98 2.85" style="fill:none;stroke:#fff;stroke-miterlimit:10;stroke-width:0.011288871956060887px"/><polyline points="19.71 2.6 19.39 4.28 18.31 4.14 18.44 2.44 19.71 2.6" style="fill:#fff"/><polyline points="19.71 2.6 19.39 4.28 18.31 4.14 18.44 2.44 19.71 2.6" style="fill:none;stroke:#fff;stroke-miterlimit:10;stroke-width:0.011288871956060887px"/><polyline points="18.44 2.44 18.31 4.14 17.24 4.07 17.17 2.35 18.44 2.44" style="fill:#fff"/><polyline points="18.44 2.44 18.31 4.14 17.24 4.07 17.17 2.35 18.44 2.44" style="fill:none;stroke:#fff;stroke-miterlimit:10;stroke-width:0.011288871956060887px"/><polyline points="4.19 12.31 1.23 12.04 1.71 10.82 4.53 11.31 4.19 12.31" style="fill:#fff"/><polyline points="4.19 12.31 1.23 12.04 1.71 10.82 4.53 11.31 4.19 12.31" style="fill:none;stroke:#fff;stroke-miterlimit:10;stroke-width:0.011288871956060887px"/><polyline points="4.53 11.31 1.71 10.82 2.3 9.69 4.97 10.36 4.53 11.31" style="fill:#fff"/><polyline points="4.53 11.31 1.71 10.82 2.3 9.69 4.97 10.36 4.53 11.31" style="fill:none;stroke:#fff;stroke-miterlimit:10;stroke-width:0.011288871956060887px"/><polyline points="4.97 10.36 2.3 9.69 2.99 8.63 5.5 9.47 4.97 10.36" style="fill:#fff"/><polyline points="4.97 10.36 2.3 9.69 2.99 8.63 5.5 9.47 4.97 10.36" style="fill:none;stroke:#fff;stroke-miterlimit:10;stroke-width:0.011288871956060887px"/><polyline points="5.5 9.47 2.99 8.63 3.77 7.65 6.1 8.64 5.5 9.47" style="fill:#fff"/><polyline points="5.5 9.47 2.99 8.63 3.77 7.65 6.1 8.64 5.5 9.47" style="fill:none;stroke:#fff;stroke-miterlimit:10;stroke-width:0.011288871956060887px"/><polyline points="6.1 8.64 3.77 7.65 4.63 6.76 6.79 7.88 6.1 8.64" style="fill:#fff"/><polyline points="6.1 8.64 3.77 7.65 4.63 6.76 6.79 7.88 6.1 8.64" style="fill:none;stroke:#fff;stroke-miterlimit:10;stroke-width:0.011288871956060887px"/><polyline points="6.79 7.88 4.63 6.76 5.56 5.94 7.53 7.19 6.79 7.88" style="fill:#fff"/><polyline points="6.79 7.88 4.63 6.76 5.56 5.94 7.53 7.19 6.79 7.88" style="fill:none;stroke:#fff;stroke-miterlimit:10;stroke-width:0.011288871956060887px"/><polyline points="7.53 7.19 5.56 5.94 6.55 5.22 8.34 6.56 7.53 7.19" style="fill:#fff"/><polyline points="7.53 7.19 5.56 5.94 6.55 5.22 8.34 6.56 7.53 7.19" style="fill:none;stroke:#fff;stroke-miterlimit:10;stroke-width:0.011288871956060887px"/><polyline points="8.34 6.56 6.55 5.22 7.6 4.57 9.2 6 8.34 6.56" style="fill:#fff"/><polyline points="8.34 6.56 6.55 5.22 7.6 4.57 9.2 6 8.34 6.56" style="fill:none;stroke:#fff;stroke-miterlimit:10;stroke-width:0.011288871956060887px"/><polyline points="9.2 6 7.6 4.57 8.69 4.01 10.1 5.51 9.2 6" style="fill:#fff"/><polyline points="9.2 6 7.6 4.57 8.69 4.01 10.1 5.51 9.2 6" style="fill:none;stroke:#fff;stroke-miterlimit:10;stroke-width:0.011288871956060887px"/><polyline points="10.1 5.51 8.69 4.01 9.83 3.53 11.04 5.1 10.1 5.51" style="fill:#fff"/><polyline points="10.1 5.51 8.69 4.01 9.83 3.53 11.04 5.1 10.1 5.51" style="fill:none;stroke:#fff;stroke-miterlimit:10;stroke-width:0.011288871956060887px"/><polyline points="11.04 5.1 9.83 3.53 10.99 3.13 12.02 4.75 11.04 5.1" style="fill:#fff"/><polyline points="11.04 5.1 9.83 3.53 10.99 3.13 12.02 4.75 11.04 5.1" style="fill:none;stroke:#fff;stroke-miterlimit:10;stroke-width:0.011288871956060887px"/><polyline points="12.02 4.75 10.99 3.13 12.19 2.82 13.03 4.47 12.02 4.75" style="fill:#fff"/><polyline points="12.02 4.75 10.99 3.13 12.19 2.82 13.03 4.47 12.02 4.75" style="fill:none;stroke:#fff;stroke-miterlimit:10;stroke-width:0.011288871956060887px"/><polyline points="13.03 4.47 12.19 2.82 13.41 2.58 14.06 4.27 13.03 4.47" style="fill:#fff"/><polyline points="13.03 4.47 12.19 2.82 13.41 2.58 14.06 4.27 13.03 4.47" style="fill:none;stroke:#fff;stroke-miterlimit:10;stroke-width:0.011288871956060887px"/><polyline points="17.17 2.35 17.24 4.07 16.17 4.06 15.9 2.35 17.17 2.35" style="fill:#fff"/><polyline points="17.17 2.35 17.24 4.07 16.17 4.06 15.9 2.35 17.17 2.35" style="fill:none;stroke:#fff;stroke-miterlimit:10;stroke-width:0.011288871956060887px"/><polyline points="15.9 2.35 16.17 4.06 15.11 4.13 14.65 2.43 15.9 2.35" style="fill:#fff"/><polyline points="15.9 2.35 16.17 4.06 15.11 4.13 14.65 2.43 15.9 2.35" style="fill:none;stroke:#fff;stroke-miterlimit:10;stroke-width:0.011288871956060887px"/><polyline points="14.65 2.43 15.11 4.13 14.06 4.27 13.41 2.58 14.65 2.43" style="fill:#fff"/><polyline points="14.65 2.43 15.11 4.13 14.06 4.27 13.41 2.58 14.65 2.43" style="fill:none;stroke:#fff;stroke-miterlimit:10;stroke-width:0.011288871956060887px"/><polyline points="5.57 19.71 3.83 14.46 3.95 13.37 5.64 18.77 5.57 19.71" style="fill:#696969"/><polyline points="5.57 19.71 3.83 14.46 3.95 13.37 5.64 18.77 5.57 19.71" style="fill:none;stroke:#696969;stroke-miterlimit:10;stroke-width:0.011288871956060887px"/><polyline points="5.64 18.77 3.95 13.37 4.19 12.31 5.8 17.85 5.64 18.77" style="fill:#6d6d6d"/><polyline points="5.64 18.77 3.95 13.37 4.19 12.31 5.8 17.85 5.64 18.77" style="fill:none;stroke:#6d6d6d;stroke-miterlimit:10;stroke-width:0.011288871956060887px"/><polyline points="21.52 4.78 19.78 11.06 18.92 10.79 20.46 4.5 21.52 4.78" style="fill:#d3d3d3"/><polyline points="21.52 4.78 19.78 11.06 18.92 10.79 20.46 4.5 21.52 4.78" style="fill:none;stroke:#d3d3d3;stroke-miterlimit:10;stroke-width:0.011288871956060887px"/><polyline points="20.46 4.5 18.92 10.79 18.05 10.59 19.39 4.28 20.46 4.5" style="fill:#d7d7d7"/><polyline points="20.46 4.5 18.92 10.79 18.05 10.59 19.39 4.28 20.46 4.5" style="fill:none;stroke:#d7d7d7;stroke-miterlimit:10;stroke-width:0.011288871956060887px"/><polyline points="19.39 4.28 18.05 10.59 17.17 10.46 18.31 4.14 19.39 4.28" style="fill:#dadada"/><polyline points="19.39 4.28 18.05 10.59 17.17 10.46 18.31 4.14 19.39 4.28" style="fill:none;stroke:#dadada;stroke-miterlimit:10;stroke-width:0.011288871956060887px"/><polyline points="18.31 4.14 17.17 10.46 16.29 10.39 17.24 4.07 18.31 4.14" style="fill:#dbdbdb"/><polyline points="18.31 4.14 17.17 10.46 16.29 10.39 17.24 4.07 18.31 4.14" style="fill:none;stroke:#dbdbdb;stroke-miterlimit:10;stroke-width:0.011288871956060887px"/><polyline points="17.24 4.07 16.29 10.39 15.42 10.39 16.17 4.06 17.24 4.07" style="fill:#dcdcdc"/><polyline points="17.24 4.07 16.29 10.39 15.42 10.39 16.17 4.06 17.24 4.07" style="fill:none;stroke:#dcdcdc;stroke-miterlimit:10;stroke-width:0.011288871956060887px"/><polyline points="16.17 4.06 15.42 10.39 14.54 10.45 15.11 4.13 16.17 4.06" style="fill:#dbdbdb"/><polyline points="16.17 4.06 15.42 10.39 14.54 10.45 15.11 4.13 16.17 4.06" style="fill:none;stroke:#dbdbdb;stroke-miterlimit:10;stroke-width:0.011288871956060887px"/><polyline points="15.11 4.13 14.54 10.45 13.69 10.58 14.06 4.27 15.11 4.13" style="fill:#dadada"/><polyline points="15.11 4.13 14.54 10.45 13.69 10.58 14.06 4.27 15.11 4.13" style="fill:none;stroke:#dadada;stroke-miterlimit:10;stroke-width:0.011288871956060887px"/><polyline points="5.8 17.85 4.19 12.31 4.53 11.31 6.05 16.96 5.8 17.85" style="fill:#787878"/><polyline points="5.8 17.85 4.19 12.31 4.53 11.31 6.05 16.96 5.8 17.85" style="fill:none;stroke:#787878;stroke-miterlimit:10;stroke-width:0.011288871956060887px"/><polyline points="6.05 16.96 4.53 11.31 4.97 10.36 6.38 16.12 6.05 16.96" style="fill:#838383"/><polyline points="6.05 16.96 4.53 11.31 4.97 10.36 6.38 16.12 6.05 16.96" style="fill:none;stroke:#838383;stroke-miterlimit:10;stroke-width:0.011288871956060887px"/><polyline points="6.38 16.12 4.97 10.36 5.5 9.47 6.78 15.33 6.38 16.12" style="fill:#8e8e8e"/><polyline points="6.38 16.12 4.97 10.36 5.5 9.47 6.78 15.33 6.38 16.12" style="fill:none;stroke:#8e8e8e;stroke-miterlimit:10;stroke-width:0.011288871956060887px"/><polyline points="6.78 15.33 5.5 9.47 6.1 8.64 7.25 14.59 6.78 15.33" style="fill:#989898"/><polyline points="6.78 15.33 5.5 9.47 6.1 8.64 7.25 14.59 6.78 15.33" style="fill:none;stroke:#989898;stroke-miterlimit:10;stroke-width:0.011288871956060887px"/><polyline points="7.25 14.59 6.1 8.64 6.79 7.88 7.79 13.9 7.25 14.59" style="fill:#a2a2a2"/><polyline points="7.25 14.59 6.1 8.64 6.79 7.88 7.79 13.9 7.25 14.59" style="fill:none;stroke:#a2a2a2;stroke-miterlimit:10;stroke-width:0.011288871956060887px"/><polyline points="7.79 13.9 6.79 7.88 7.53 7.19 8.38 13.27 7.79 13.9" style="fill:#ababab"/><polyline points="7.79 13.9 6.79 7.88 7.53 7.19 8.38 13.27 7.79 13.9" style="fill:none;stroke:#ababab;stroke-miterlimit:10;stroke-width:0.011288871956060887px"/><polyline points="8.38 13.27 7.53 7.19 8.34 6.56 9.03 12.7 8.38 13.27" style="fill:#b4b4b4"/><polyline points="8.38 13.27 7.53 7.19 8.34 6.56 9.03 12.7 8.38 13.27" style="fill:none;stroke:#b4b4b4;stroke-miterlimit:10;stroke-width:0.011288871956060887px"/><polyline points="9.03 12.7 8.34 6.56 9.2 6 9.72 12.19 9.03 12.7" style="fill:#bcbcbc"/><polyline points="9.03 12.7 8.34 6.56 9.2 6 9.72 12.19 9.03 12.7" style="fill:none;stroke:#bcbcbc;stroke-miterlimit:10;stroke-width:0.011288871956060887px"/><polyline points="9.72 12.19 9.2 6 10.1 5.51 10.45 11.74 9.72 12.19" style="fill:#c3c3c3"/><polyline points="9.72 12.19 9.2 6 10.1 5.51 10.45 11.74 9.72 12.19" style="fill:none;stroke:#c3c3c3;stroke-miterlimit:10;stroke-width:0.011288871956060887px"/><polyline points="10.45 11.74 10.1 5.51 11.04 5.1 11.22 11.35 10.45 11.74" style="fill:#cacaca"/><polyline points="10.45 11.74 10.1 5.51 11.04 5.1 11.22 11.35 10.45 11.74" style="fill:none;stroke:#cacaca;stroke-miterlimit:10;stroke-width:0.011288871956060887px"/><polyline points="11.22 11.35 11.04 5.1 12.02 4.75 12.02 11.03 11.22 11.35" style="fill:#cfcfcf"/><polyline points="11.22 11.35 11.04 5.1 12.02 4.75 12.02 11.03 11.22 11.35" style="fill:none;stroke:#cfcfcf;stroke-miterlimit:10;stroke-width:0.011288871956060887px"/><polyline points="12.02 11.03 12.02 4.75 13.03 4.47 12.84 10.77 12.02 11.03" style="fill:#d4d4d4"/><polyline points="12.02 11.03 12.02 4.75 13.03 4.47 12.84 10.77 12.02 11.03" style="fill:none;stroke:#d4d4d4;stroke-miterlimit:10;stroke-width:0.011288871956060887px"/><polyline points="12.84 10.77 13.03 4.47 14.06 4.27 13.69 10.58 12.84 10.77" style="fill:#d7d7d7"/><polyline points="12.84 10.77 13.03 4.47 14.06 4.27 13.69 10.58 12.84 10.77" style="fill:none;stroke:#d7d7d7;stroke-miterlimit:10;stroke-width:0.011288871956060887px"/><line x1="20.63" y1="11.39" x2="22.57" y2="5.14" style="fill:none;stroke:#000;stroke-linecap:round;stroke-linejoin:round;stroke-width:0.2px"/><line x1="3.84" y1="15.6" x2="3.83" y2="14.46" style="fill:none;stroke:#000;stroke-linecap:round;stroke-linejoin:round;stroke-width:0.2px"/><line x1="22.57" y1="5.14" x2="23.49" y2="3.57" style="fill:none;stroke:#000;stroke-linecap:round;stroke-linejoin:round;stroke-width:0.2px"/><line x1="0.57" y1="16.09" x2="3.84" y2="15.6" style="fill:none;stroke:#000;stroke-linecap:round;stroke-linejoin:round;stroke-width:0.2px"/><line x1="5.6" y1="20.69" x2="3.84" y2="15.6" style="fill:none;stroke:#000;stroke-linecap:round;stroke-linejoin:round;stroke-width:0.2px"/><line x1="4.53" y1="11.31" x2="4.97" y2="10.36" style="fill:none;stroke:#000;stroke-linecap:round;stroke-linejoin:round;stroke-width:0.2px"/><line x1="3.95" y1="13.37" x2="4.19" y2="12.31" style="fill:none;stroke:#000;stroke-linecap:round;stroke-linejoin:round;stroke-width:0.2px"/><line x1="3.83" y1="14.46" x2="3.95" y2="13.37" style="fill:none;stroke:#000;stroke-linecap:round;stroke-linejoin:round;stroke-width:0.2px"/><line x1="5.5" y1="9.47" x2="6.1" y2="8.64" style="fill:none;stroke:#000;stroke-linecap:round;stroke-linejoin:round;stroke-width:0.2px"/><line x1="4.97" y1="10.36" x2="5.5" y2="9.47" style="fill:none;stroke:#000;stroke-linecap:round;stroke-linejoin:round;stroke-width:0.2px"/><line x1="4.19" y1="12.31" x2="4.53" y2="11.31" style="fill:none;stroke:#000;stroke-linecap:round;stroke-linejoin:round;stroke-width:0.2px"/><line x1="16.17" y1="4.06" x2="17.24" y2="4.07" style="fill:none;stroke:#000;stroke-linecap:round;stroke-linejoin:round;stroke-width:0.2px"/><line x1="15.11" y1="4.13" x2="16.17" y2="4.06" style="fill:none;stroke:#000;stroke-linecap:round;stroke-linejoin:round;stroke-width:0.2px"/><line x1="13.03" y1="4.47" x2="14.06" y2="4.27" style="fill:none;stroke:#000;stroke-linecap:round;stroke-linejoin:round;stroke-width:0.2px"/><line x1="7.53" y1="7.19" x2="8.34" y2="6.56" style="fill:none;stroke:#000;stroke-linecap:round;stroke-linejoin:round;stroke-width:0.2px"/><line x1="6.79" y1="7.88" x2="7.53" y2="7.19" style="fill:none;stroke:#000;stroke-linecap:round;stroke-linejoin:round;stroke-width:0.2px"/><line x1="6.1" y1="8.64" x2="6.79" y2="7.88" style="fill:none;stroke:#000;stroke-linecap:round;stroke-linejoin:round;stroke-width:0.2px"/><line x1="18.31" y1="4.14" x2="19.39" y2="4.28" style="fill:none;stroke:#000;stroke-linecap:round;stroke-linejoin:round;stroke-width:0.2px"/><line x1="17.24" y1="4.07" x2="18.31" y2="4.14" style="fill:none;stroke:#000;stroke-linecap:round;stroke-linejoin:round;stroke-width:0.2px"/><line x1="14.06" y1="4.27" x2="15.11" y2="4.13" style="fill:none;stroke:#000;stroke-linecap:round;stroke-linejoin:round;stroke-width:0.2px"/><line x1="10.1" y1="5.52" x2="11.05" y2="5.1" style="fill:none;stroke:#000;stroke-linecap:round;stroke-linejoin:round;stroke-width:0.2px"/><line x1="8.34" y1="6.56" x2="9.2" y2="6" style="fill:none;stroke:#000;stroke-linecap:round;stroke-linejoin:round;stroke-width:0.2px"/><line x1="19.39" y1="4.28" x2="20.46" y2="4.5" style="fill:none;stroke:#000;stroke-linecap:round;stroke-linejoin:round;stroke-width:0.2px"/><line x1="11.05" y1="5.1" x2="12.02" y2="4.75" style="fill:none;stroke:#000;stroke-linecap:round;stroke-linejoin:round;stroke-width:0.2px"/><line x1="9.2" y1="6" x2="10.1" y2="5.52" style="fill:none;stroke:#000;stroke-linecap:round;stroke-linejoin:round;stroke-width:0.2px"/><line x1="21.52" y1="4.78" x2="22.57" y2="5.14" style="fill:none;stroke:#000;stroke-linecap:round;stroke-linejoin:round;stroke-width:0.2px"/><line x1="20.46" y1="4.5" x2="21.52" y2="4.78" style="fill:none;stroke:#000;stroke-linecap:round;stroke-linejoin:round;stroke-width:0.2px"/><line x1="12.02" y1="4.75" x2="13.03" y2="4.47" style="fill:none;stroke:#000;stroke-linecap:round;stroke-linejoin:round;stroke-width:0.2px"/><line x1="21.43" y1="9.93" x2="23.49" y2="3.57" style="fill:none;stroke:#000;stroke-linecap:round;stroke-linejoin:round"/><line x1="5.6" y1="20.69" x2="5.57" y2="19.72" style="fill:none;stroke:#000;stroke-linecap:round;stroke-linejoin:round"/><line x1="20.63" y1="11.39" x2="21.43" y2="9.93" style="fill:none;stroke:#000;stroke-linecap:round;stroke-linejoin:round"/><line x1="23.49" y1="3.57" x2="22.24" y2="3.17" style="fill:none;stroke:#000;stroke-linecap:round;stroke-linejoin:round"/><line x1="3.05" y1="21.1" x2="5.6" y2="20.69" style="fill:none;stroke:#000;stroke-linecap:round;stroke-linejoin:round"/><line x1="3.05" y1="21.1" x2="0.57" y2="16.09" style="fill:none;stroke:#000;stroke-linecap:round;stroke-linejoin:round"/><line x1="6.05" y1="16.96" x2="6.38" y2="16.12" style="fill:none;stroke:#000;stroke-linecap:round;stroke-linejoin:round"/><line x1="5.8" y1="17.85" x2="6.05" y2="16.96" style="fill:none;stroke:#000;stroke-linecap:round;stroke-linejoin:round"/><line x1="5.64" y1="18.77" x2="5.8" y2="17.85" style="fill:none;stroke:#000;stroke-linecap:round;stroke-linejoin:round"/><line x1="5.57" y1="19.72" x2="5.64" y2="18.77" style="fill:none;stroke:#000;stroke-linecap:round;stroke-linejoin:round"/><line x1="1.71" y1="10.83" x2="1.22" y2="12.04" style="fill:none;stroke:#000;stroke-linecap:round;stroke-linejoin:round"/><line x1="2.99" y1="8.63" x2="2.3" y2="9.69" style="fill:none;stroke:#000;stroke-linecap:round;stroke-linejoin:round"/><line x1="15.9" y1="2.35" x2="14.65" y2="2.43" style="fill:none;stroke:#000;stroke-linecap:round;stroke-linejoin:round"/><line x1="18.44" y1="2.44" x2="17.17" y2="2.35" style="fill:none;stroke:#000;stroke-linecap:round;stroke-linejoin:round"/><line x1="19.71" y1="2.6" x2="18.44" y2="2.44" style="fill:none;stroke:#000;stroke-linecap:round;stroke-linejoin:round"/><line x1="22.24" y1="3.17" x2="20.98" y2="2.84" style="fill:none;stroke:#000;stroke-linecap:round;stroke-linejoin:round"/><line x1="6.78" y1="15.33" x2="7.25" y2="14.59" style="fill:none;stroke:#000;stroke-linecap:round;stroke-linejoin:round"/><line x1="6.38" y1="16.12" x2="6.78" y2="15.33" style="fill:none;stroke:#000;stroke-linecap:round;stroke-linejoin:round"/><line x1="0.87" y1="13.33" x2="0.64" y2="14.68" style="fill:none;stroke:#000;stroke-linecap:round;stroke-linejoin:round"/><line x1="1.22" y1="12.04" x2="0.87" y2="13.33" style="fill:none;stroke:#000;stroke-linecap:round;stroke-linejoin:round"/><line x1="2.3" y1="9.69" x2="1.71" y2="10.83" style="fill:none;stroke:#000;stroke-linecap:round;stroke-linejoin:round"/><line x1="14.65" y1="2.43" x2="13.41" y2="2.58" style="fill:none;stroke:#000;stroke-linecap:round;stroke-linejoin:round"/><line x1="17.17" y1="2.35" x2="15.9" y2="2.35" style="fill:none;stroke:#000;stroke-linecap:round;stroke-linejoin:round"/><line x1="20.98" y1="2.84" x2="19.71" y2="2.6" style="fill:none;stroke:#000;stroke-linecap:round;stroke-linejoin:round"/><line x1="17.17" y1="10.46" x2="18.05" y2="10.59" style="fill:none;stroke:#000;stroke-linecap:round;stroke-linejoin:round"/><line x1="12.84" y1="10.77" x2="13.68" y2="10.58" style="fill:none;stroke:#000;stroke-linecap:round;stroke-linejoin:round"/><line x1="10.45" y1="11.74" x2="11.22" y2="11.35" style="fill:none;stroke:#000;stroke-linecap:round;stroke-linejoin:round"/><line x1="9.03" y1="12.7" x2="9.72" y2="12.19" style="fill:none;stroke:#000;stroke-linecap:round;stroke-linejoin:round"/><line x1="7.25" y1="14.59" x2="7.79" y2="13.9" style="fill:none;stroke:#000;stroke-linecap:round;stroke-linejoin:round"/><line x1="0.64" y1="14.68" x2="0.57" y2="16.09" style="fill:none;stroke:#000;stroke-linecap:round;stroke-linejoin:round"/><line x1="12.19" y1="2.82" x2="10.99" y2="3.13" style="fill:none;stroke:#000;stroke-linecap:round;stroke-linejoin:round"/><line x1="13.41" y1="2.58" x2="12.19" y2="2.82" style="fill:none;stroke:#000;stroke-linecap:round;stroke-linejoin:round"/><line x1="18.05" y1="10.59" x2="18.92" y2="10.79" style="fill:none;stroke:#000;stroke-linecap:round;stroke-linejoin:round"/><line x1="13.68" y1="10.58" x2="14.54" y2="10.45" style="fill:none;stroke:#000;stroke-linecap:round;stroke-linejoin:round"/><line x1="11.22" y1="11.35" x2="12.02" y2="11.03" style="fill:none;stroke:#000;stroke-linecap:round;stroke-linejoin:round"/><line x1="9.72" y1="12.19" x2="10.45" y2="11.74" style="fill:none;stroke:#000;stroke-linecap:round;stroke-linejoin:round"/><line x1="7.79" y1="13.9" x2="8.38" y2="13.27" style="fill:none;stroke:#000;stroke-linecap:round;stroke-linejoin:round"/><line x1="5.56" y1="5.94" x2="4.63" y2="6.76" style="fill:none;stroke:#000;stroke-linecap:round;stroke-linejoin:round"/><line x1="8.69" y1="4.01" x2="7.6" y2="4.57" style="fill:none;stroke:#000;stroke-linecap:round;stroke-linejoin:round"/><line x1="9.83" y1="3.53" x2="8.69" y2="4.01" style="fill:none;stroke:#000;stroke-linecap:round;stroke-linejoin:round"/><line x1="10.99" y1="3.13" x2="9.83" y2="3.53" style="fill:none;stroke:#000;stroke-linecap:round;stroke-linejoin:round"/><line x1="18.92" y1="10.79" x2="19.78" y2="11.06" style="fill:none;stroke:#000;stroke-linecap:round;stroke-linejoin:round"/><line x1="16.29" y1="10.39" x2="17.17" y2="10.46" style="fill:none;stroke:#000;stroke-linecap:round;stroke-linejoin:round"/><line x1="15.42" y1="10.39" x2="16.29" y2="10.39" style="fill:none;stroke:#000;stroke-linecap:round;stroke-linejoin:round"/><line x1="14.54" y1="10.45" x2="15.42" y2="10.39" style="fill:none;stroke:#000;stroke-linecap:round;stroke-linejoin:round"/><line x1="12.02" y1="11.03" x2="12.84" y2="10.77" style="fill:none;stroke:#000;stroke-linecap:round;stroke-linejoin:round"/><line x1="8.38" y1="13.27" x2="9.03" y2="12.7" style="fill:none;stroke:#000;stroke-linecap:round;stroke-linejoin:round"/><line x1="4.63" y1="6.76" x2="3.77" y2="7.65" style="fill:none;stroke:#000;stroke-linecap:round;stroke-linejoin:round"/><line x1="6.55" y1="5.22" x2="5.56" y2="5.94" style="fill:none;stroke:#000;stroke-linecap:round;stroke-linejoin:round"/><line x1="7.6" y1="4.57" x2="6.55" y2="5.22" style="fill:none;stroke:#000;stroke-linecap:round;stroke-linejoin:round"/><line x1="19.78" y1="11.06" x2="20.63" y2="11.39" style="fill:none;stroke:#000;stroke-linecap:round;stroke-linejoin:round"/><line x1="3.77" y1="7.65" x2="2.99" y2="8.63" style="fill:none;stroke:#000;stroke-linecap:round;stroke-linejoin:round"/></g></svg>