<svg id="Layer_1" data-name="Layer 1" xmlns="http://www.w3.org/2000/svg" xmlns:xlink="http://www.w3.org/1999/xlink" viewBox="0 0 32 32"><defs><clipPath id="clip-path"><rect width="32" height="32" style="fill:none"/></clipPath></defs><title>bend</title><g style="clip-path:url(#clip-path)"><path d="M21.92,25.48a.25.25,0,0,1-.19-.09l-.64-.77a.25.25,0,1,1,.38-.32l.64.77a.25.25,0,0,1-.19.41Z" style="fill:#e51919"/><path d="M19.94,23.1a.25.25,0,0,1-.19-.09L18.41,21.4a.25.25,0,1,1,.38-.32l1.34,1.61a.25.25,0,0,1,0,.35A.25.25,0,0,1,19.94,23.1Zm-2.68-3.22a.25.25,0,0,1-.19-.09l-1.34-1.6a.25.25,0,0,1,0-.36.24.24,0,0,1,.35,0l1.34,1.6a.26.26,0,0,1,0,.36A.24.24,0,0,1,17.26,19.88Z" style="fill:#e51919"/><path d="M14.58,16.67a.25.25,0,0,1-.19-.09l-.64-.77a.25.25,0,1,1,.38-.32l.64.77a.25.25,0,0,1,0,.35A.27.27,0,0,1,14.58,16.67Z" style="fill:#e51919"/><line x1="27.37" y1="15.31" x2="21.79" y2="25.35" style="fill:none;stroke:#e51919;stroke-linecap:round;stroke-linejoin:round;stroke-width:0.5px"/><line x1="7.34" y1="27.71" x2="21.79" y2="25.35" style="fill:none;stroke:#e51919;stroke-linecap:round;stroke-linejoin:round;stroke-width:0.5px"/><polyline points="31.32 4.77 28.58 13.24 27.5 15.18 30.09 6.85 31.32 4.77" style="fill:#a1a1a1"/><polyline points="31.32 4.77 28.58 13.24 27.5 15.18 30.09 6.85 31.32 4.77" style="fill:none;stroke:#a1a1a1;stroke-miterlimit:10;stroke-width:0.011288871956060887px"/><polyline points="7.43 26.29 7.47 27.58 5.12 20.8 5.11 19.29 7.43 26.29" style="fill:#747474"/><polyline points="7.43 26.29 7.47 27.58 5.12 20.8 5.11 19.29 7.43 26.29" style="fill:none;stroke:#747474;stroke-miterlimit:10;stroke-width:0.011288871956060887px"/><polyline points="30.09 6.85 27.5 15.18 26.38 14.74 28.7 6.38 30.09 6.85" style="fill:#cfcfcf"/><polyline points="30.09 6.85 27.5 15.18 26.38 14.74 28.7 6.38 30.09 6.85" style="fill:none;stroke:#cfcfcf;stroke-miterlimit:10;stroke-width:0.011288871956060887px"/><polyline points="5.11 19.29 5.12 20.8 0.76 21.45 0.86 19.57 5.11 19.29" style="fill:#fff"/><polyline points="5.11 19.29 5.12 20.8 0.76 21.45 0.86 19.57 5.11 19.29" style="fill:none;stroke:#fff;stroke-miterlimit:10;stroke-width:0.011288871956060887px"/><polyline points="31.32 4.77 30.09 6.85 28.7 6.38 29.65 4.22 31.32 4.77" style="fill:#fff"/><polyline points="31.32 4.77 30.09 6.85 28.7 6.38 29.65 4.22 31.32 4.77" style="fill:none;stroke:#fff;stroke-miterlimit:10;stroke-width:0.011288871956060887px"/><polyline points="0.76 21.45 5.12 20.8 7.47 27.58 4.07 28.14 0.76 21.45" style="fill:#dadada"/><polyline points="0.76 21.45 5.12 20.8 7.47 27.58 4.07 28.14 0.76 21.45" style="fill:none;stroke:#dadada;stroke-miterlimit:10;stroke-width:0.011288871956060887px"/><polyline points="29.65 4.22 28.7 6.38 27.28 6 27.97 3.79 29.65 4.22" style="fill:#fff"/><polyline points="29.65 4.22 28.7 6.38 27.28 6 27.97 3.79 29.65 4.22" style="fill:none;stroke:#fff;stroke-miterlimit:10;stroke-width:0.011288871956060887px"/><polyline points="5.11 19.29 0.86 19.57 1.16 17.77 5.27 17.82 5.11 19.29" style="fill:#fff"/><polyline points="5.11 19.29 0.86 19.57 1.16 17.77 5.27 17.82 5.11 19.29" style="fill:none;stroke:#fff;stroke-miterlimit:10;stroke-width:0.011288871956060887px"/><polyline points="5.27 17.82 1.16 17.77 1.63 16.05 5.58 16.41 5.27 17.82" style="fill:#fff"/><polyline points="5.27 17.82 1.16 17.77 1.63 16.05 5.58 16.41 5.27 17.82" style="fill:none;stroke:#fff;stroke-miterlimit:10;stroke-width:0.011288871956060887px"/><polyline points="27.97 3.79 27.28 6 25.85 5.71 26.28 3.47 27.97 3.79" style="fill:#fff"/><polyline points="27.97 3.79 27.28 6 25.85 5.71 26.28 3.47 27.97 3.79" style="fill:none;stroke:#fff;stroke-miterlimit:10;stroke-width:0.011288871956060887px"/><polyline points="26.28 3.47 25.85 5.71 24.42 5.52 24.59 3.25 26.28 3.47" style="fill:#fff"/><polyline points="26.28 3.47 25.85 5.71 24.42 5.52 24.59 3.25 26.28 3.47" style="fill:none;stroke:#fff;stroke-miterlimit:10;stroke-width:0.011288871956060887px"/><polyline points="24.59 3.25 24.42 5.52 22.98 5.42 22.89 3.14 24.59 3.25" style="fill:#fff"/><polyline points="24.59 3.25 24.42 5.52 22.98 5.42 22.89 3.14 24.59 3.25" style="fill:none;stroke:#fff;stroke-miterlimit:10;stroke-width:0.011288871956060887px"/><polyline points="5.58 16.41 1.63 16.05 2.27 14.43 6.04 15.08 5.58 16.41" style="fill:#fff"/><polyline points="5.58 16.41 1.63 16.05 2.27 14.43 6.04 15.08 5.58 16.41" style="fill:none;stroke:#fff;stroke-miterlimit:10;stroke-width:0.011288871956060887px"/><polyline points="6.04 15.08 2.27 14.43 3.06 12.92 6.62 13.81 6.04 15.08" style="fill:#fff"/><polyline points="6.04 15.08 2.27 14.43 3.06 12.92 6.62 13.81 6.04 15.08" style="fill:none;stroke:#fff;stroke-miterlimit:10;stroke-width:0.011288871956060887px"/><polyline points="6.62 13.81 3.06 12.92 3.99 11.5 7.33 12.63 6.62 13.81" style="fill:#fff"/><polyline points="6.62 13.81 3.06 12.92 3.99 11.5 7.33 12.63 6.62 13.81" style="fill:none;stroke:#fff;stroke-miterlimit:10;stroke-width:0.011288871956060887px"/><polyline points="7.33 12.63 3.99 11.5 5.03 10.2 8.14 11.52 7.33 12.63" style="fill:#fff"/><polyline points="7.33 12.63 3.99 11.5 5.03 10.2 8.14 11.52 7.33 12.63" style="fill:none;stroke:#fff;stroke-miterlimit:10;stroke-width:0.011288871956060887px"/><polyline points="8.14 11.52 5.03 10.2 6.18 9.01 9.05 10.51 8.14 11.52" style="fill:#fff"/><polyline points="8.14 11.52 5.03 10.2 6.18 9.01 9.05 10.51 8.14 11.52" style="fill:none;stroke:#fff;stroke-miterlimit:10;stroke-width:0.011288871956060887px"/><polyline points="9.05 10.51 6.18 9.01 7.42 7.93 10.05 9.58 9.05 10.51" style="fill:#fff"/><polyline points="9.05 10.51 6.18 9.01 7.42 7.93 10.05 9.58 9.05 10.51" style="fill:none;stroke:#fff;stroke-miterlimit:10;stroke-width:0.011288871956060887px"/><polyline points="10.05 9.58 7.42 7.93 8.74 6.96 11.12 8.75 10.05 9.58" style="fill:#fff"/><polyline points="10.05 9.58 7.42 7.93 8.74 6.96 11.12 8.75 10.05 9.58" style="fill:none;stroke:#fff;stroke-miterlimit:10;stroke-width:0.011288871956060887px"/><polyline points="11.12 8.75 8.74 6.96 10.13 6.1 12.27 8 11.12 8.75" style="fill:#fff"/><polyline points="11.12 8.75 8.74 6.96 10.13 6.1 12.27 8 11.12 8.75" style="fill:none;stroke:#fff;stroke-miterlimit:10;stroke-width:0.011288871956060887px"/><polyline points="12.27 8 10.13 6.1 11.59 5.35 13.47 7.35 12.27 8" style="fill:#fff"/><polyline points="12.27 8 10.13 6.1 11.59 5.35 13.47 7.35 12.27 8" style="fill:none;stroke:#fff;stroke-miterlimit:10;stroke-width:0.011288871956060887px"/><polyline points="13.47 7.35 11.59 5.35 13.1 4.71 14.73 6.8 13.47 7.35" style="fill:#fff"/><polyline points="13.47 7.35 11.59 5.35 13.1 4.71 14.73 6.8 13.47 7.35" style="fill:none;stroke:#fff;stroke-miterlimit:10;stroke-width:0.011288871956060887px"/><polyline points="14.73 6.8 13.1 4.71 14.66 4.18 16.03 6.33 14.73 6.8" style="fill:#fff"/><polyline points="14.73 6.8 13.1 4.71 14.66 4.18 16.03 6.33 14.73 6.8" style="fill:none;stroke:#fff;stroke-miterlimit:10;stroke-width:0.011288871956060887px"/><polyline points="16.03 6.33 14.66 4.18 16.25 3.76 17.37 5.96 16.03 6.33" style="fill:#fff"/><polyline points="16.03 6.33 14.66 4.18 16.25 3.76 17.37 5.96 16.03 6.33" style="fill:none;stroke:#fff;stroke-miterlimit:10;stroke-width:0.011288871956060887px"/><polyline points="17.37 5.96 16.25 3.76 17.88 3.44 18.74 5.69 17.37 5.96" style="fill:#fff"/><polyline points="17.37 5.96 16.25 3.76 17.88 3.44 18.74 5.69 17.37 5.96" style="fill:none;stroke:#fff;stroke-miterlimit:10;stroke-width:0.011288871956060887px"/><polyline points="22.89 3.14 22.98 5.42 21.56 5.42 21.21 3.13 22.89 3.14" style="fill:#fff"/><polyline points="22.89 3.14 22.98 5.42 21.56 5.42 21.21 3.13 22.89 3.14" style="fill:none;stroke:#fff;stroke-miterlimit:10;stroke-width:0.011288871956060887px"/><polyline points="21.21 3.13 21.56 5.42 20.14 5.5 19.53 3.23 21.21 3.13" style="fill:#fff"/><polyline points="21.21 3.13 21.56 5.42 20.14 5.5 19.53 3.23 21.21 3.13" style="fill:none;stroke:#fff;stroke-miterlimit:10;stroke-width:0.011288871956060887px"/><polyline points="19.53 3.23 20.14 5.5 18.74 5.69 17.88 3.44 19.53 3.23" style="fill:#fff"/><polyline points="19.53 3.23 20.14 5.5 18.74 5.69 17.88 3.44 19.53 3.23" style="fill:none;stroke:#fff;stroke-miterlimit:10;stroke-width:0.011288871956060887px"/><polyline points="7.43 26.29 5.11 19.29 5.27 17.82 7.52 25.02 7.43 26.29" style="fill:#696969"/><polyline points="7.43 26.29 5.11 19.29 5.27 17.82 7.52 25.02 7.43 26.29" style="fill:none;stroke:#696969;stroke-miterlimit:10;stroke-width:0.011288871956060887px"/><polyline points="7.52 25.02 5.27 17.82 5.58 16.41 7.73 23.8 7.52 25.02" style="fill:#6d6d6d"/><polyline points="7.52 25.02 5.27 17.82 5.58 16.41 7.73 23.8 7.52 25.02" style="fill:none;stroke:#6d6d6d;stroke-miterlimit:10;stroke-width:0.011288871956060887px"/><polyline points="28.7 6.38 26.38 14.74 25.23 14.39 27.28 6 28.7 6.38" style="fill:#d3d3d3"/><polyline points="28.7 6.38 26.38 14.74 25.23 14.39 27.28 6 28.7 6.38" style="fill:none;stroke:#d3d3d3;stroke-miterlimit:10;stroke-width:0.011288871956060887px"/><polyline points="27.28 6 25.23 14.39 24.07 14.12 25.85 5.71 27.28 6" style="fill:#d7d7d7"/><polyline points="27.28 6 25.23 14.39 24.07 14.12 25.85 5.71 27.28 6" style="fill:none;stroke:#d7d7d7;stroke-miterlimit:10;stroke-width:0.011288871956060887px"/><polyline points="25.85 5.71 24.07 14.12 22.9 13.95 24.42 5.52 25.85 5.71" style="fill:#dadada"/><polyline points="25.85 5.71 24.07 14.12 22.9 13.95 24.42 5.52 25.85 5.71" style="fill:none;stroke:#dadada;stroke-miterlimit:10;stroke-width:0.011288871956060887px"/><polyline points="24.42 5.52 22.9 13.95 21.73 13.85 22.98 5.42 24.42 5.52" style="fill:#dbdbdb"/><polyline points="24.42 5.52 22.9 13.95 21.73 13.85 22.98 5.42 24.42 5.52" style="fill:none;stroke:#dbdbdb;stroke-miterlimit:10;stroke-width:0.011288871956060887px"/><polyline points="22.98 5.42 21.73 13.85 20.55 13.85 21.56 5.42 22.98 5.42" style="fill:#dcdcdc"/><polyline points="22.98 5.42 21.73 13.85 20.55 13.85 21.56 5.42 22.98 5.42" style="fill:none;stroke:#dcdcdc;stroke-miterlimit:10;stroke-width:0.011288871956060887px"/><polyline points="21.56 5.42 20.55 13.85 19.39 13.93 20.14 5.5 21.56 5.42" style="fill:#dbdbdb"/><polyline points="21.56 5.42 20.55 13.85 19.39 13.93 20.14 5.5 21.56 5.42" style="fill:none;stroke:#dbdbdb;stroke-miterlimit:10;stroke-width:0.011288871956060887px"/><polyline points="20.14 5.5 19.39 13.93 18.25 14.1 18.74 5.69 20.14 5.5" style="fill:#dadada"/><polyline points="20.14 5.5 19.39 13.93 18.25 14.1 18.74 5.69 20.14 5.5" style="fill:none;stroke:#dadada;stroke-miterlimit:10;stroke-width:0.011288871956060887px"/><polyline points="7.73 23.8 5.58 16.41 6.04 15.08 8.06 22.62 7.73 23.8" style="fill:#787878"/><polyline points="7.73 23.8 5.58 16.41 6.04 15.08 8.06 22.62 7.73 23.8" style="fill:none;stroke:#787878;stroke-miterlimit:10;stroke-width:0.011288871956060887px"/><polyline points="8.06 22.62 6.04 15.08 6.62 13.81 8.5 21.5 8.06 22.62" style="fill:#838383"/><polyline points="8.06 22.62 6.04 15.08 6.62 13.81 8.5 21.5 8.06 22.62" style="fill:none;stroke:#838383;stroke-miterlimit:10;stroke-width:0.011288871956060887px"/><polyline points="8.5 21.5 6.62 13.81 7.33 12.63 9.04 20.44 8.5 21.5" style="fill:#8e8e8e"/><polyline points="8.5 21.5 6.62 13.81 7.33 12.63 9.04 20.44 8.5 21.5" style="fill:none;stroke:#8e8e8e;stroke-miterlimit:10;stroke-width:0.011288871956060887px"/><polyline points="9.04 20.44 7.33 12.63 8.14 11.52 9.67 19.45 9.04 20.44" style="fill:#989898"/><polyline points="9.04 20.44 7.33 12.63 8.14 11.52 9.67 19.45 9.04 20.44" style="fill:none;stroke:#989898;stroke-miterlimit:10;stroke-width:0.011288871956060887px"/><polyline points="9.67 19.45 8.14 11.52 9.05 10.51 10.39 18.53 9.67 19.45" style="fill:#a2a2a2"/><polyline points="9.67 19.45 8.14 11.52 9.05 10.51 10.39 18.53 9.67 19.45" style="fill:none;stroke:#a2a2a2;stroke-miterlimit:10;stroke-width:0.011288871956060887px"/><polyline points="10.39 18.53 9.05 10.51 10.05 9.58 11.18 17.69 10.39 18.53" style="fill:#ababab"/><polyline points="10.39 18.53 9.05 10.51 10.05 9.58 11.18 17.69 10.39 18.53" style="fill:none;stroke:#ababab;stroke-miterlimit:10;stroke-width:0.011288871956060887px"/><polyline points="11.18 17.69 10.05 9.58 11.12 8.75 12.04 16.93 11.18 17.69" style="fill:#b4b4b4"/><polyline points="11.18 17.69 10.05 9.58 11.12 8.75 12.04 16.93 11.18 17.69" style="fill:none;stroke:#b4b4b4;stroke-miterlimit:10;stroke-width:0.011288871956060887px"/><polyline points="12.04 16.93 11.12 8.75 12.27 8 12.96 16.25 12.04 16.93" style="fill:#bcbcbc"/><polyline points="12.04 16.93 11.12 8.75 12.27 8 12.96 16.25 12.04 16.93" style="fill:none;stroke:#bcbcbc;stroke-miterlimit:10;stroke-width:0.011288871956060887px"/><polyline points="12.96 16.25 12.27 8 13.47 7.35 13.94 15.65 12.96 16.25" style="fill:#c3c3c3"/><polyline points="12.96 16.25 12.27 8 13.47 7.35 13.94 15.65 12.96 16.25" style="fill:none;stroke:#c3c3c3;stroke-miterlimit:10;stroke-width:0.011288871956060887px"/><polyline points="13.94 15.65 13.47 7.35 14.73 6.8 14.96 15.13 13.94 15.65" style="fill:#cacaca"/><polyline points="13.94 15.65 13.47 7.35 14.73 6.8 14.96 15.13 13.94 15.65" style="fill:none;stroke:#cacaca;stroke-miterlimit:10;stroke-width:0.011288871956060887px"/><polyline points="14.96 15.13 14.73 6.8 16.03 6.33 16.02 14.7 14.96 15.13" style="fill:#cfcfcf"/><polyline points="14.96 15.13 14.73 6.8 16.03 6.33 16.02 14.7 14.96 15.13" style="fill:none;stroke:#cfcfcf;stroke-miterlimit:10;stroke-width:0.011288871956060887px"/><polyline points="16.02 14.7 16.03 6.33 17.37 5.96 17.12 14.36 16.02 14.7" style="fill:#d4d4d4"/><polyline points="16.02 14.7 16.03 6.33 17.37 5.96 17.12 14.36 16.02 14.7" style="fill:none;stroke:#d4d4d4;stroke-miterlimit:10;stroke-width:0.011288871956060887px"/><polyline points="17.12 14.36 17.37 5.96 18.74 5.69 18.25 14.1 17.12 14.36" style="fill:#d7d7d7"/><polyline points="17.12 14.36 17.37 5.96 18.74 5.69 18.25 14.1 17.12 14.36" style="fill:none;stroke:#d7d7d7;stroke-miterlimit:10;stroke-width:0.011288871956060887px"/><line x1="27.5" y1="15.18" x2="30.09" y2="6.85" style="fill:none;stroke:#000;stroke-linecap:round;stroke-linejoin:round;stroke-width:0.2px"/><line x1="5.12" y1="20.8" x2="5.11" y2="19.28" style="fill:none;stroke:#000;stroke-linecap:round;stroke-linejoin:round;stroke-width:0.2px"/><line x1="30.09" y1="6.85" x2="31.32" y2="4.77" style="fill:none;stroke:#000;stroke-linecap:round;stroke-linejoin:round;stroke-width:0.2px"/><line x1="0.75" y1="21.45" x2="5.12" y2="20.8" style="fill:none;stroke:#000;stroke-linecap:round;stroke-linejoin:round;stroke-width:0.2px"/><line x1="7.47" y1="27.58" x2="5.12" y2="20.8" style="fill:none;stroke:#000;stroke-linecap:round;stroke-linejoin:round;stroke-width:0.2px"/><line x1="6.04" y1="15.08" x2="6.62" y2="13.81" style="fill:none;stroke:#000;stroke-linecap:round;stroke-linejoin:round;stroke-width:0.2px"/><line x1="5.27" y1="17.82" x2="5.59" y2="16.41" style="fill:none;stroke:#000;stroke-linecap:round;stroke-linejoin:round;stroke-width:0.2px"/><line x1="5.11" y1="19.28" x2="5.27" y2="17.82" style="fill:none;stroke:#000;stroke-linecap:round;stroke-linejoin:round;stroke-width:0.2px"/><line x1="7.33" y1="12.63" x2="8.14" y2="11.52" style="fill:none;stroke:#000;stroke-linecap:round;stroke-linejoin:round;stroke-width:0.2px"/><line x1="6.62" y1="13.81" x2="7.33" y2="12.63" style="fill:none;stroke:#000;stroke-linecap:round;stroke-linejoin:round;stroke-width:0.2px"/><line x1="5.59" y1="16.41" x2="6.04" y2="15.08" style="fill:none;stroke:#000;stroke-linecap:round;stroke-linejoin:round;stroke-width:0.2px"/><line x1="21.56" y1="5.42" x2="22.98" y2="5.42" style="fill:none;stroke:#000;stroke-linecap:round;stroke-linejoin:round;stroke-width:0.2px"/><line x1="20.14" y1="5.51" x2="21.56" y2="5.42" style="fill:none;stroke:#000;stroke-linecap:round;stroke-linejoin:round;stroke-width:0.2px"/><line x1="17.37" y1="5.96" x2="18.74" y2="5.69" style="fill:none;stroke:#000;stroke-linecap:round;stroke-linejoin:round;stroke-width:0.2px"/><line x1="10.05" y1="9.58" x2="11.12" y2="8.75" style="fill:none;stroke:#000;stroke-linecap:round;stroke-linejoin:round;stroke-width:0.2px"/><line x1="9.05" y1="10.51" x2="10.05" y2="9.58" style="fill:none;stroke:#000;stroke-linecap:round;stroke-linejoin:round;stroke-width:0.2px"/><line x1="8.14" y1="11.52" x2="9.05" y2="10.51" style="fill:none;stroke:#000;stroke-linecap:round;stroke-linejoin:round;stroke-width:0.2px"/><line x1="24.42" y1="5.52" x2="25.85" y2="5.71" style="fill:none;stroke:#000;stroke-linecap:round;stroke-linejoin:round;stroke-width:0.2px"/><line x1="22.98" y1="5.42" x2="24.42" y2="5.52" style="fill:none;stroke:#000;stroke-linecap:round;stroke-linejoin:round;stroke-width:0.2px"/><line x1="18.74" y1="5.69" x2="20.14" y2="5.51" style="fill:none;stroke:#000;stroke-linecap:round;stroke-linejoin:round;stroke-width:0.2px"/><line x1="13.47" y1="7.35" x2="14.73" y2="6.8" style="fill:none;stroke:#000;stroke-linecap:round;stroke-linejoin:round;stroke-width:0.2px"/><line x1="11.12" y1="8.75" x2="12.26" y2="8" style="fill:none;stroke:#000;stroke-linecap:round;stroke-linejoin:round;stroke-width:0.2px"/><line x1="25.85" y1="5.71" x2="27.28" y2="6" style="fill:none;stroke:#000;stroke-linecap:round;stroke-linejoin:round;stroke-width:0.2px"/><line x1="14.73" y1="6.8" x2="16.03" y2="6.33" style="fill:none;stroke:#000;stroke-linecap:round;stroke-linejoin:round;stroke-width:0.2px"/><line x1="12.26" y1="8" x2="13.47" y2="7.35" style="fill:none;stroke:#000;stroke-linecap:round;stroke-linejoin:round;stroke-width:0.2px"/><line x1="28.69" y1="6.38" x2="30.09" y2="6.85" style="fill:none;stroke:#000;stroke-linecap:round;stroke-linejoin:round;stroke-width:0.2px"/><line x1="27.28" y1="6" x2="28.69" y2="6.38" style="fill:none;stroke:#000;stroke-linecap:round;stroke-linejoin:round;stroke-width:0.2px"/><line x1="16.03" y1="6.33" x2="17.37" y2="5.96" style="fill:none;stroke:#000;stroke-linecap:round;stroke-linejoin:round;stroke-width:0.2px"/><line x1="28.58" y1="13.24" x2="31.32" y2="4.77" style="fill:none;stroke:#000;stroke-linecap:round;stroke-linejoin:round"/><line x1="7.47" y1="27.58" x2="7.43" y2="26.29" style="fill:none;stroke:#000;stroke-linecap:round;stroke-linejoin:round"/><line x1="27.5" y1="15.18" x2="28.58" y2="13.24" style="fill:none;stroke:#000;stroke-linecap:round;stroke-linejoin:round"/><line x1="31.32" y1="4.77" x2="29.65" y2="4.23" style="fill:none;stroke:#000;stroke-linecap:round;stroke-linejoin:round"/><line x1="4.07" y1="28.14" x2="7.47" y2="27.58" style="fill:none;stroke:#000;stroke-linecap:round;stroke-linejoin:round"/><line x1="4.07" y1="28.14" x2="0.75" y2="21.45" style="fill:none;stroke:#000;stroke-linecap:round;stroke-linejoin:round"/><line x1="8.06" y1="22.62" x2="8.5" y2="21.5" style="fill:none;stroke:#000;stroke-linecap:round;stroke-linejoin:round"/><line x1="7.73" y1="23.8" x2="8.06" y2="22.62" style="fill:none;stroke:#000;stroke-linecap:round;stroke-linejoin:round"/><line x1="7.52" y1="25.02" x2="7.73" y2="23.8" style="fill:none;stroke:#000;stroke-linecap:round;stroke-linejoin:round"/><line x1="7.43" y1="26.29" x2="7.52" y2="25.02" style="fill:none;stroke:#000;stroke-linecap:round;stroke-linejoin:round"/><line x1="2.28" y1="14.43" x2="1.63" y2="16.05" style="fill:none;stroke:#000;stroke-linecap:round;stroke-linejoin:round"/><line x1="3.99" y1="11.5" x2="3.07" y2="12.92" style="fill:none;stroke:#000;stroke-linecap:round;stroke-linejoin:round"/><line x1="21.21" y1="3.13" x2="19.53" y2="3.23" style="fill:none;stroke:#000;stroke-linecap:round;stroke-linejoin:round"/><line x1="24.59" y1="3.25" x2="22.89" y2="3.14" style="fill:none;stroke:#000;stroke-linecap:round;stroke-linejoin:round"/><line x1="26.28" y1="3.47" x2="24.59" y2="3.25" style="fill:none;stroke:#000;stroke-linecap:round;stroke-linejoin:round"/><line x1="29.65" y1="4.23" x2="27.97" y2="3.79" style="fill:none;stroke:#000;stroke-linecap:round;stroke-linejoin:round"/><line x1="9.04" y1="20.44" x2="9.67" y2="19.45" style="fill:none;stroke:#000;stroke-linecap:round;stroke-linejoin:round"/><line x1="8.5" y1="21.5" x2="9.04" y2="20.44" style="fill:none;stroke:#000;stroke-linecap:round;stroke-linejoin:round"/><line x1="1.15" y1="17.77" x2="0.86" y2="19.57" style="fill:none;stroke:#000;stroke-linecap:round;stroke-linejoin:round"/><line x1="1.63" y1="16.05" x2="1.15" y2="17.77" style="fill:none;stroke:#000;stroke-linecap:round;stroke-linejoin:round"/><line x1="3.07" y1="12.92" x2="2.28" y2="14.43" style="fill:none;stroke:#000;stroke-linecap:round;stroke-linejoin:round"/><line x1="19.53" y1="3.23" x2="17.88" y2="3.44" style="fill:none;stroke:#000;stroke-linecap:round;stroke-linejoin:round"/><line x1="22.89" y1="3.14" x2="21.21" y2="3.13" style="fill:none;stroke:#000;stroke-linecap:round;stroke-linejoin:round"/><line x1="27.97" y1="3.79" x2="26.28" y2="3.47" style="fill:none;stroke:#000;stroke-linecap:round;stroke-linejoin:round"/><line x1="22.9" y1="13.95" x2="24.07" y2="14.12" style="fill:none;stroke:#000;stroke-linecap:round;stroke-linejoin:round"/><line x1="17.12" y1="14.36" x2="18.25" y2="14.1" style="fill:none;stroke:#000;stroke-linecap:round;stroke-linejoin:round"/><line x1="13.94" y1="15.65" x2="14.96" y2="15.13" style="fill:none;stroke:#000;stroke-linecap:round;stroke-linejoin:round"/><line x1="12.04" y1="16.93" x2="12.96" y2="16.25" style="fill:none;stroke:#000;stroke-linecap:round;stroke-linejoin:round"/><line x1="9.67" y1="19.45" x2="10.39" y2="18.53" style="fill:none;stroke:#000;stroke-linecap:round;stroke-linejoin:round"/><line x1="0.86" y1="19.57" x2="0.75" y2="21.45" style="fill:none;stroke:#000;stroke-linecap:round;stroke-linejoin:round"/><line x1="16.25" y1="3.76" x2="14.66" y2="4.18" style="fill:none;stroke:#000;stroke-linecap:round;stroke-linejoin:round"/><line x1="17.88" y1="3.44" x2="16.25" y2="3.76" style="fill:none;stroke:#000;stroke-linecap:round;stroke-linejoin:round"/><line x1="24.07" y1="14.12" x2="25.23" y2="14.39" style="fill:none;stroke:#000;stroke-linecap:round;stroke-linejoin:round"/><line x1="18.25" y1="14.1" x2="19.39" y2="13.93" style="fill:none;stroke:#000;stroke-linecap:round;stroke-linejoin:round"/><line x1="14.96" y1="15.13" x2="16.02" y2="14.7" style="fill:none;stroke:#000;stroke-linecap:round;stroke-linejoin:round"/><line x1="12.96" y1="16.25" x2="13.94" y2="15.65" style="fill:none;stroke:#000;stroke-linecap:round;stroke-linejoin:round"/><line x1="10.39" y1="18.53" x2="11.18" y2="17.69" style="fill:none;stroke:#000;stroke-linecap:round;stroke-linejoin:round"/><line x1="7.42" y1="7.93" x2="6.18" y2="9.01" style="fill:none;stroke:#000;stroke-linecap:round;stroke-linejoin:round"/><line x1="11.59" y1="5.35" x2="10.13" y2="6.1" style="fill:none;stroke:#000;stroke-linecap:round;stroke-linejoin:round"/><line x1="13.1" y1="4.71" x2="11.59" y2="5.35" style="fill:none;stroke:#000;stroke-linecap:round;stroke-linejoin:round"/><line x1="14.66" y1="4.18" x2="13.1" y2="4.71" style="fill:none;stroke:#000;stroke-linecap:round;stroke-linejoin:round"/><line x1="25.23" y1="14.39" x2="26.38" y2="14.74" style="fill:none;stroke:#000;stroke-linecap:round;stroke-linejoin:round"/><line x1="21.72" y1="13.85" x2="22.9" y2="13.95" style="fill:none;stroke:#000;stroke-linecap:round;stroke-linejoin:round"/><line x1="20.55" y1="13.85" x2="21.72" y2="13.85" style="fill:none;stroke:#000;stroke-linecap:round;stroke-linejoin:round"/><line x1="19.39" y1="13.93" x2="20.55" y2="13.85" style="fill:none;stroke:#000;stroke-linecap:round;stroke-linejoin:round"/><line x1="16.02" y1="14.7" x2="17.12" y2="14.36" style="fill:none;stroke:#000;stroke-linecap:round;stroke-linejoin:round"/><line x1="11.18" y1="17.69" x2="12.04" y2="16.93" style="fill:none;stroke:#000;stroke-linecap:round;stroke-linejoin:round"/><line x1="6.18" y1="9.01" x2="5.03" y2="10.2" style="fill:none;stroke:#000;stroke-linecap:round;stroke-linejoin:round"/><line x1="8.74" y1="6.96" x2="7.42" y2="7.93" style="fill:none;stroke:#000;stroke-linecap:round;stroke-linejoin:round"/><line x1="10.13" y1="6.1" x2="8.74" y2="6.96" style="fill:none;stroke:#000;stroke-linecap:round;stroke-linejoin:round"/><line x1="26.38" y1="14.74" x2="27.5" y2="15.18" style="fill:none;stroke:#000;stroke-linecap:round;stroke-linejoin:round"/><line x1="5.03" y1="10.2" x2="3.99" y2="11.5" style="fill:none;stroke:#000;stroke-linecap:round;stroke-linejoin:round"/></g></svg>